<svg width="251" height="251" viewBox="0 0 251 251" fill="none" xmlns="http://www.w3.org/2000/svg">
<rect width="251" height="251" rx="50" fill="#00A3D7"/>
<path d="M135.5 195C122.9 195 112.167 190.567 103.3 181.7C94.4333 172.833 90 162.1 90 149.5V145.475C79.9667 143.842 71.625 139.146 64.975 131.387C58.325 123.629 55 114.5 55 104V69C55 67.0167 55.6708 65.3542 57.0125 64.0125C58.3542 62.6708 60.0167 62 62 62H76C76 60.0167 76.6708 58.3542 78.0125 57.0125C79.3542 55.6708 81.0167 55 83 55C84.9833 55 86.6458 55.6708 87.9875 57.0125C89.3292 58.3542 90 60.0167 90 62V76C90 77.9833 89.3292 79.6458 87.9875 80.9875C86.6458 82.3292 84.9833 83 83 83C81.0167 83 79.3542 82.3292 78.0125 80.9875C76.6708 79.6458 76 77.9833 76 76H69V104C69 111.7 71.7417 118.292 77.225 123.775C82.7083 129.258 89.3 132 97 132C104.7 132 111.292 129.258 116.775 123.775C122.258 118.292 125 111.7 125 104V76H118C118 77.9833 117.329 79.6458 115.987 80.9875C114.646 82.3292 112.983 83 111 83C109.017 83 107.354 82.3292 106.013 80.9875C104.671 79.6458 104 77.9833 104 76V62C104 60.0167 104.671 58.3542 106.013 57.0125C107.354 55.6708 109.017 55 111 55C112.983 55 114.646 55.6708 115.987 57.0125C117.329 58.3542 118 60.0167 118 62H132C133.983 62 135.646 62.6708 136.987 64.0125C138.329 65.3542 139 67.0167 139 69V104C139 114.5 135.675 123.629 129.025 131.387C122.375 139.146 114.033 143.842 104 145.475V149.5C104 158.25 107.062 165.688 113.188 171.812C119.312 177.938 126.75 181 135.5 181C144.25 181 151.688 177.938 157.812 171.812C163.938 165.688 167 158.25 167 149.5V137.775C162.917 136.258 159.562 133.721 156.938 130.162C154.312 126.604 153 122.55 153 118C153 112.167 155.042 107.208 159.125 103.125C163.208 99.0417 168.167 97 174 97C179.833 97 184.792 99.0417 188.875 103.125C192.958 107.208 195 112.167 195 118C195 122.55 193.688 126.604 191.062 130.162C188.438 133.721 185.083 136.258 181 137.775V149.5C181 162.1 176.567 172.833 167.7 181.7C158.833 190.567 148.1 195 135.5 195ZM174 125C175.983 125 177.646 124.329 178.987 122.987C180.329 121.646 181 119.983 181 118C181 116.017 180.329 114.354 178.987 113.013C177.646 111.671 175.983 111 174 111C172.017 111 170.354 111.671 169.012 113.013C167.671 114.354 167 116.017 167 118C167 119.983 167.671 121.646 169.012 122.987C170.354 124.329 172.017 125 174 125Z" fill="white"/>
</svg>
